<svg xmlns="http://www.w3.org/2000/svg" width="512" height="560" viewBox="0 0 512 560" role="img" aria-labelledby="title desc">
  <title id="title">New seal badge</title>
  <desc id="desc">A coral red award seal with cream lettering spelling NEW on a transparent background.</desc>

  <defs>
    <linearGradient id="ribbon" x1="0" y1="0" x2="0" y2="1">
      <stop offset="0" stop-color="#F25A4C"/>
      <stop offset="1" stop-color="#D9362A"/>
    </linearGradient>
    <radialGradient id="face" cx="42%" cy="32%" r="72%">
      <stop offset="0" stop-color="#F76052"/>
      <stop offset="0.68" stop-color="#EB4437"/>
      <stop offset="1" stop-color="#D93429"/>
    </radialGradient>
    <filter id="shadow" x="-20%" y="-20%" width="140%" height="155%">
      <feDropShadow dx="0" dy="10" stdDeviation="10" flood-color="#5C1D18" flood-opacity="0.24"/>
    </filter>
  </defs>

  <g filter="url(#shadow)">
    <path d="M155 330 L102 516 L172 479 L213 544 L254 364 Z" fill="url(#ribbon)" stroke="#C92E24" stroke-width="8" stroke-linejoin="round"/>
    <path d="M357 330 L410 516 L340 479 L299 544 L258 364 Z" fill="url(#ribbon)" stroke="#C92E24" stroke-width="8" stroke-linejoin="round"/>
    <path d="M149 357 L118 486 L174 456 L207 507 L235 377" fill="none" stroke="#FFF1D7" stroke-width="7" stroke-linejoin="round"/>
    <path d="M363 357 L394 486 L338 456 L305 507 L277 377" fill="none" stroke="#FFF1D7" stroke-width="7" stroke-linejoin="round"/>

    <circle cx="256" cy="220" r="184" fill="#EF4B3E"/>
    <circle cx="256" cy="220" r="185" fill="none" stroke="#EF4B3E" stroke-width="38" stroke-linecap="round" stroke-dasharray="1 23.2"/>
    <circle cx="256" cy="220" r="177" fill="none" stroke="#FF786B" stroke-width="6"/>
    <circle cx="256" cy="220" r="157" fill="url(#face)" stroke="#C92E24" stroke-width="7"/>
    <circle cx="256" cy="220" r="143" fill="none" stroke="#FFF1D7" stroke-width="8"/>

    <text x="256" y="263" text-anchor="middle" font-family="Arial, Helvetica, sans-serif" font-size="112" font-weight="800" letter-spacing="2" fill="#FFF1D7" stroke="#FFF1D7" stroke-width="1">NEW</text>
  </g>
</svg>
